<?xml version="1.0" encoding="utf-8"?>
<!-- Generator: Adobe Illustrator 25.3.1, SVG Export Plug-In . SVG Version: 6.00 Build 0)  -->
<svg version="1.1" id="Layer_1" xmlns="http://www.w3.org/2000/svg" xmlns:xlink="http://www.w3.org/1999/xlink" x="0px" y="0px"
	 viewBox="0 0 145.4 38.9" style="enable-background:new 0 0 145.4 38.9;" xml:space="preserve">
<style type="text/css">
	.st0{fill:#FCC200;}
	.st1{clip-path:url(#SVGID_2_);}
</style>
<g>
	<path class="st0" d="M111.2,10.5l-1-3.1l-10.1,3.3V0h-3.3v10.6L86.7,7.3l-1,3.1l10.1,3.3l-6.2,8.6l2.7,1.9l7.3-10L111.2,10.5z
		 M98.4,12.9L98.4,12.9L98.4,12.9L98.4,12.9L98.4,12.9z"/>
	<rect x="101.9" y="15.9" transform="matrix(0.8091 -0.5877 0.5877 0.8091 8.029 64.6937)" class="st0" width="3.3" height="8.3"/>
	<polygon points="3.3,17.6 3.3,24.2 12.7,24.2 12.7,27.4 3.3,27.4 3.3,38.5 0,38.5 0,14.3 13.4,14.3 13.4,17.6 	"/>
	<rect x="15.6" y="14.3" width="3.3" height="24.2"/>
	<polygon points="37.3,14.3 31.3,38.5 26.6,38.5 20.5,14.3 23.9,14.3 28.9,35.2 34,14.3 	"/>
	<polygon points="39,38.5 39,14.3 52.4,14.3 52.4,17.6 42.3,17.6 42.3,24.1 51.7,24.1 51.7,27.4 42.3,27.4 42.3,35.3 52.4,35.3 
		52.4,38.5 	"/>
	<g>
		<path d="M61.1,38.9c-4.4,0-7.2-2.9-7.2-6.7h3.3c0,2.2,1.6,3.4,3.9,3.4c2.5,0,4.2-1.5,4.2-3.5c0-1.6-0.9-2.6-2.1-3.3
			c-1-0.6-2.6-1.4-5.5-2.9c-1.9-0.9-3.3-3.1-3.3-5.5c0-3.7,2.8-6.3,6.8-6.3c4.2,0,7.1,2.7,7.1,6.6h-3.3c0-2.1-1.6-3.3-3.7-3.3
			c-2,0-3.6,1.1-3.6,3.1c0,1.2,0.7,2.1,1.9,2.7c1.9,1,3.7,1.8,5.3,2.7c2.5,1.3,3.8,3.5,3.8,6.3C68.5,36,65.3,38.9,61.1,38.9"/>
		<path d="M78.4,29.3h-4.1v9.2H71V14.3h7.3c5.6,0,6.7,4.5,6.7,6.6v1.7C85,24.9,83.9,29.3,78.4,29.3 M81.7,21c0-3-2.2-3.4-3.5-3.4
			h-3.9V26h4c1.3,0,3.4-0.4,3.4-3.4V21z"/>
	</g>
	<g>
		<defs>
			<rect id="SVGID_1_" x="0" y="0" width="145.4" height="38.9"/>
		</defs>
		<clipPath id="SVGID_2_">
			<use xlink:href="#SVGID_1_"  style="overflow:visible;"/>
		</clipPath>
		<path class="st1" d="M124.3,38.5l-4.6-9.2h-3.2v9.2l-3.3,0V14.3l7.3,0c5.6,0,6.8,4.4,6.8,6.6v1.8c0,1.8-0.8,5.1-4.1,6.3l4.9,9.6
			H124.3z M124,21c0-3-2.2-3.4-3.5-3.4h-3.9V26l4,0c1.3,0,3.4-0.4,3.4-3.4V21z"/>
		<path class="st1" d="M141.6,38.5l-6.2-10.4l-1.6,2.3v8.1h-3.3V14.3h3.3v10.3c2.4-3.4,4.9-6.9,7.3-10.3h3.8l-7.6,10.9l8,13.3H141.6
			z"/>
	</g>
</g>
</svg>
